<?xml version="1.0" encoding="UTF-8" standalone="no"?> <svg id="Layer_1" data-name="Layer 1" xmlns="http://www.w3.org/2000/svg" xmlns:xlink="http://www.w3.org/1999/xlink" viewBox="0 0 48 48"><defs><style>.cls-1{fill:url(#linear-gradient);}.cls-2{fill:url(#linear-gradient-2);}.cls-3{fill:url(#linear-gradient-3);}.cls-4{fill:url(#linear-gradient-4);}</style><linearGradient id="linear-gradient" x1="24" y1="6.125" x2="24" y2="33.945" gradientUnits="userSpaceOnUse"><stop offset="0" stop-color="#4793eb"/><stop offset="0.31" stop-color="#448feb"/><stop offset="0.602" stop-color="#3b84eb"/><stop offset="0.884" stop-color="#2b71ec"/><stop offset="1" stop-color="#2367ec"/></linearGradient><linearGradient id="linear-gradient-2" x1="24" y1="10.464" x2="24" y2="28.476" gradientUnits="userSpaceOnUse"><stop offset="0" stop-color="#6fc6fc"/><stop offset="0.366" stop-color="#6bc2fb"/><stop offset="0.71" stop-color="#60b7f9"/><stop offset="1" stop-color="#50a7f6"/></linearGradient><linearGradient id="linear-gradient-3" x1="24" y1="34.089" x2="24" y2="40.365" gradientUnits="userSpaceOnUse"><stop offset="0" stop-color="#edf1f2"/><stop offset="1" stop-color="#c6cbcc"/></linearGradient><linearGradient id="linear-gradient-4" x1="14.86" y1="33.407" x2="30.289" y2="36.46" gradientUnits="userSpaceOnUse"><stop offset="0" stop-color="#c6cbcc"/><stop offset="1" stop-color="#9fa5a6"/></linearGradient></defs><path class="cls-1" d="M9,6H39a5,5,0,0,1,5,5V38H4V11A5,5,0,0,1,9,6Z"/><rect class="cls-2" x="8" y="10" width="32" height="20" rx="2"/><path class="cls-3" d="M46,34H2a2,2,0,0,0-2,2H0a5,5,0,0,0,5,5H43a5,5,0,0,0,5-5h0A2,2,0,0,0,46,34Z"/><path class="cls-4" d="M14,34l1.406,2.109A2,2,0,0,0,17.07,37H30.93a2,2,0,0,0,1.664-.891L34,34Z"/></svg>